<svg width="82" height="20" viewBox="0 0 82 20" fill="none" xmlns="http://www.w3.org/2000/svg">
<path fill-rule="evenodd" clip-rule="evenodd" d="M2 20L11.1647 0L20 20H16.9414L15.1274 15.7244L14.9991 15.4295L13.8605 12.7587L11.1144 6.36235L8.23442 12.7587L7.07349 15.4295L5.00837 20H2ZM58.4637 1.2135L59.0112 0H62L55.8883 13.3258V20H52.8771V13.2747L47 0H50.0056L50.3966 0.912957V0.918628L50.5251 1.2135L51.6648 3.88432L54.4134 10.2807L57.2961 3.88432L58.4637 1.2135ZM30.8626 5.51177V2.83527H39.7732L41 0.0170116L28 0V20H30.8626V13.3031H35.1565L36.3833 10.4621H30.8626V7.64389V5.51177ZM64 20L73.1591 0L82 20H78.9414L77.1274 15.7244L76.9991 15.4295L75.8605 12.7587L73.1144 6.36235L70.2344 12.7587L69.0735 15.4295L67.0084 20H64Z" fill="white"/>
<path d="M9.75126 17H0L1.31534 14H11L9.75126 17Z" fill="#00FFDE"/>
<path d="M9.75126 17H0L1.31534 14H11L9.75126 17Z" fill="url(#paint0_linear)"/>
<defs>
<linearGradient id="paint0_linear" x1="0.727513" y1="17" x2="10.9008" y2="17" gradientUnits="userSpaceOnUse">
<stop stop-color="#00FFDE"/>
<stop offset="1" stop-color="#00E0FF"/>
</linearGradient>
</defs>
</svg>
