<svg width="39" height="32" viewBox="0 0 39 32" fill="none" xmlns="http://www.w3.org/2000/svg">
<path d="M4.23913 25.2632H6.78261V31.1579C6.78261 31.4947 6.95217 31.8316 7.2913 31.9158C7.37609 32 7.54565 32 7.63043 32C7.88478 32 8.05435 31.9158 8.22391 31.7474L14.7522 25.2632H34.7609C37.1348 25.2632 39 23.4105 39 21.0526V4.21053C39 1.85263 37.1348 0 34.7609 0H4.23913C1.86522 0 0 1.85263 0 4.21053V5.89474C0 6.4 0.33913 6.73684 0.847826 6.73684C1.35652 6.73684 1.69565 6.4 1.69565 5.89474V4.21053C1.69565 2.77895 2.79783 1.68421 4.23913 1.68421H34.7609C36.2022 1.68421 37.3043 2.77895 37.3043 4.21053V21.0526C37.3043 22.4842 36.2022 23.5789 34.7609 23.5789H14.413C14.1587 23.5789 13.9891 23.6632 13.8196 23.8316L8.47826 29.1368V24.4211C8.47826 23.9158 8.13913 23.5789 7.63043 23.5789H4.23913C2.79783 23.5789 1.69565 22.4842 1.69565 21.0526V8.42105C1.69565 7.91579 1.35652 7.57895 0.847826 7.57895C0.33913 7.57895 0 7.91579 0 8.42105V21.0526C0 23.4105 1.86522 25.2632 4.23913 25.2632Z" fill="#8400DB"/>
<path fill-rule="evenodd" clip-rule="evenodd" d="M5.5238 4C4.41923 4 3.5238 4.89543 3.5238 6V19C3.5238 20.1046 4.41924 21 5.5238 21H10.5714V23.9343L15.0026 21H33.2378C34.3424 21 35.2378 20.1046 35.2378 19V6C35.2378 4.89543 34.3424 4 33.2378 4H5.5238Z" fill="#8400DB" fill-opacity="0.6"/>
</svg>
