<svg width="19" height="20" viewBox="0 0 19 20" fill="none" xmlns="http://www.w3.org/2000/svg">
<path fill-rule="evenodd" clip-rule="evenodd" d="M9.7015 0C11.6677 0 13.2729 1.60522 13.2729 3.57144V10C13.2729 10.1706 13.2573 10.3377 13.2339 10.5022L6.13843 3.40681C6.22563 1.51694 7.79085 0 9.7015 0ZM1.63509 0.923555C7.42342 6.71188 13.6889 12.9773 18.778 18.0664L17.7679 19.0764L13.7054 15.014C12.7818 15.7539 11.6545 16.2495 10.4158 16.3867V20H8.98722V16.3867C5.77438 16.0308 3.27293 13.3074 3.27293 10V7.85716H4.7015V10C4.7015 12.7824 6.91914 15 9.7015 15C10.8321 15 11.862 14.6249 12.694 14.0025L11.6644 12.9729C11.1002 13.3481 10.427 13.5714 9.7015 13.5714C7.73529 13.5714 6.13007 11.9662 6.13007 10V7.43863L0.625048 1.93358L1.63509 0.923555ZM16.1301 7.85716V10C16.1301 10.9918 15.9011 11.9291 15.4995 12.7679L14.4113 11.6797C14.596 11.155 14.7015 10.5917 14.7015 10V7.85716H16.1301Z" fill="#EB5757"/>
</svg>
