<svg width="32" height="27" viewBox="0 0 32 27" fill="none" xmlns="http://www.w3.org/2000/svg">
<path d="M3.47826 21.3158H5.56522V26.2895C5.56522 26.5737 5.70435 26.8579 5.98261 26.9289C6.05217 27 6.1913 27 6.26087 27C6.46957 27 6.6087 26.9289 6.74783 26.7868L12.1043 21.3158H28.5217C30.4696 21.3158 32 19.7526 32 17.7632V3.55263C32 1.56316 30.4696 0 28.5217 0H3.47826C1.53043 0 0 1.56316 0 3.55263V4.97368C0 5.4 0.278261 5.68421 0.695652 5.68421C1.11304 5.68421 1.3913 5.4 1.3913 4.97368V3.55263C1.3913 2.34474 2.29565 1.42105 3.47826 1.42105H28.5217C29.7043 1.42105 30.6087 2.34474 30.6087 3.55263V17.7632C30.6087 18.9711 29.7043 19.8947 28.5217 19.8947H11.8261C11.6174 19.8947 11.4783 19.9658 11.3391 20.1079L6.95652 24.5842V20.6053C6.95652 20.1789 6.67826 19.8947 6.26087 19.8947H3.47826C2.29565 19.8947 1.3913 18.9711 1.3913 17.7632V7.10526C1.3913 6.67895 1.11304 6.39474 0.695652 6.39474C0.278261 6.39474 0 6.67895 0 7.10526V17.7632C0 19.7526 1.53043 21.3158 3.47826 21.3158Z" fill="#A14FD8"/>
</svg>
