<svg width="23" height="32" viewBox="0 0 23 32" fill="none" xmlns="http://www.w3.org/2000/svg">
<path d="M21.9545 12H20.9091C20.3315 12 19.8636 12.4475 19.8636 13V16C19.8636 20.675 15.6498 24.4263 10.6643 23.9613C6.31912 23.5556 3.13636 19.8194 3.13636 15.6438V13C3.13636 12.4475 2.66852 12 2.09091 12H1.04545C0.467841 12 0 12.4475 0 13V15.51C0 21.1125 4.17986 26.1069 9.93182 26.8656V29H6.27273C5.69511 29 5.22727 29.4475 5.22727 30V31C5.22727 31.5525 5.69511 32 6.27273 32H16.7273C17.3049 32 17.7727 31.5525 17.7727 31V30C17.7727 29.4475 17.3049 29 16.7273 29H13.0682V26.8894C18.6686 26.1544 23 21.5562 23 16V13C23 12.4475 22.5322 12 21.9545 12Z" fill="#8400DB"/>
<path d="M11.5 22C14.9644 22 17.7727 19.3137 17.7727 16V6C17.7727 2.68625 14.9644 0 11.5 0C8.03565 0 5.22729 2.68625 5.22729 6V16C5.22729 19.3137 8.03565 22 11.5 22Z" fill="#8400DB" fill-opacity="0.6"/>
</svg>
