<svg width="25" height="31" viewBox="0 0 25 31" fill="none" xmlns="http://www.w3.org/2000/svg">
<path d="M17.7259 31H3.86747C1.73392 31 0 29.2806 0 27.1649V3.83505C0 1.71938 1.73392 0 3.86747 0H17.7259C19.8595 0 21.5934 1.71938 21.5934 3.83505V9.11784C21.5934 9.46938 21.3033 9.75701 20.9488 9.75701C20.5943 9.75701 20.3042 9.46938 20.3042 9.11784V3.83505C20.3042 2.42567 19.1472 1.27835 17.7259 1.27835H3.86747C2.44618 1.27835 1.28916 2.42567 1.28916 3.83505V27.1649C1.28916 28.5743 2.44618 29.7216 3.86747 29.7216H17.7259C19.1472 29.7216 20.3042 28.5743 20.3042 27.1649V19.9263C20.3042 19.5747 20.5943 19.2871 20.9488 19.2871C21.3033 19.2871 21.5934 19.5747 21.5934 19.9263V27.1649C21.5934 29.2806 19.8595 31 17.7259 31Z" fill="#8400DB"/>
<path d="M11.9247 16.7784C10.5904 16.7784 9.50754 15.7046 9.50754 14.3815C9.50754 13.0584 10.5904 11.9846 11.9247 11.9846H18.6928V10.0767V4.47428C18.6928 3.59541 17.9676 2.87634 17.0813 2.87634H4.51205C3.62576 2.87634 2.9006 3.59541 2.9006 4.47428V26.5258C2.9006 27.4047 3.62576 28.1238 4.51205 28.1238H17.0813C17.9676 28.1238 18.6928 27.4047 18.6928 26.5258V19.2616V16.7784H11.9247Z" fill="#8400DB" fill-opacity="0.6"/>
<path d="M24.6745 14.1418L21.3066 11.7513C20.8747 11.4445 20.5202 11.6235 20.5202 12.1508V13.5793H12.0859C11.5509 13.5793 11.119 14.0076 11.119 14.5381C11.119 15.0686 11.5509 15.4969 12.0859 15.4969H20.5202V17.245C20.5202 17.7723 20.8747 17.9513 21.3066 17.6445L24.6745 15.254C25.1064 14.9536 25.1064 14.4486 24.6745 14.1418Z" fill="#8400DB"/>
</svg>
