<svg width="26" height="32" viewBox="0 0 26 32" fill="none" xmlns="http://www.w3.org/2000/svg">
<g clip-path="url(#clip0)">
<path d="M12.9503 3.74269C7.88412 3.75017 3.78147 7.78105 3.78912 12.7401C3.79676 17.7029 7.91088 21.7151 12.9809 21.7076C18.0471 21.7001 22.1497 17.673 22.1421 12.7102C22.1344 7.75111 18.0203 3.7352 12.9503 3.74269ZM9.79971 10.472C8.645 10.472 7.70824 9.55883 7.70824 8.43228C7.70824 7.30198 8.64118 6.38503 9.79206 6.38503C10.9468 6.38503 11.8835 7.29824 11.8835 8.42479C11.8835 9.55508 10.9506 10.472 9.79971 10.472Z" fill="#8400DB" fill-opacity="0.6"/>
<path d="M10.4115 23.6725C8.34293 23.2084 6.44263 22.1829 4.90175 20.6784C2.73381 18.56 1.53322 15.7418 1.5294 12.7439C1.52557 9.74597 2.71469 6.92398 4.87499 4.79813C7.0391 2.67602 9.91822 1.50082 12.9809 1.49708C12.9885 1.49708 12.9923 1.49708 13 1.49708C16.0588 1.49708 18.9341 2.66105 21.0982 4.77193C23.27 6.89029 24.4668 9.70854 24.4706 12.7064C24.4782 18.0398 20.67 22.516 15.5732 23.665C15.7568 24.0356 15.8638 24.4473 15.8638 24.8851V25.1359C21.6641 23.8559 26.0115 18.7658 26 12.7064C25.9962 9.30807 24.6388 6.11181 22.1765 3.71275C19.7218 1.31743 16.4641 0 13 0C12.9923 0 12.9847 0 12.977 0C9.50528 0.00374269 6.24381 1.3324 3.79293 3.74269C1.34204 6.14924 -0.00383829 9.3455 -1.47638e-05 12.7439C0.00380877 16.1422 1.36116 19.3385 3.82352 21.7375C5.58616 23.4554 7.76175 24.6157 10.1285 25.1359V24.8926C10.1247 24.4547 10.2318 24.043 10.4115 23.6725Z" fill="#8400DB"/>
<path d="M23.0826 28.6316H15.8676H15.0532V30.3158C15.0532 31.0119 14.6976 31.6257 14.1585 32H15.8753H23.0826C24.0347 32 24.8032 31.2477 24.8032 30.3158C24.8032 29.3839 24.0309 28.6316 23.0826 28.6316Z" fill="#8400DB"/>
<path d="M10.8474 30.3158V28.6316H10.1324H2.81794C1.86588 28.6316 1.09735 29.3839 1.09735 30.3158C1.09735 31.2477 1.86588 32 2.81794 32H10.14H11.7459C11.1991 31.6257 10.8474 31.0119 10.8474 30.3158Z" fill="#8400DB"/>
<path d="M12.9503 31.4386C13.585 31.4386 14.0974 30.9371 14.0974 30.3158V24.5147C14.0974 23.8934 13.585 23.3918 12.9503 23.3918C12.3156 23.3918 11.8032 23.8934 11.8032 24.5147V30.3158C11.8032 30.9371 12.3156 31.4386 12.9503 31.4386Z" fill="#8400DB"/>
</g>
<defs>
<clipPath id="clip0">
<rect width="26" height="32" fill="white"/>
</clipPath>
</defs>
</svg>
