<svg width="41" height="32" viewBox="0 0 41 32" fill="none" xmlns="http://www.w3.org/2000/svg">
<path d="M40.604 28.6311L30.495 21.0086C31.3015 19.508 31.7749 17.813 31.7749 15.9999V12.9999C31.7749 12.4474 31.3162 11.9999 30.7499 11.9999H29.7249C29.1586 11.9999 28.6999 12.4474 28.6999 12.9999V15.9999C28.6999 17.1199 28.4462 18.1749 28.0132 19.1374L26.3123 17.8549C26.5109 17.2674 26.6506 16.6536 26.6506 16.0005V5.99996C26.6506 2.68623 23.8972 0 20.5006 0C17.104 0 14.3506 2.68623 14.3506 5.99996V8.83494L2.91286 0.210624C2.46571 -0.128124 1.82124 -0.0499997 1.47402 0.386247L0.215834 1.96561C-0.131385 2.40123 -0.0513068 3.02936 0.395849 3.36873L38.0877 31.7892C38.5348 32.1285 39.1786 32.0498 39.5265 31.6135L40.7847 30.0342C41.1313 29.5986 41.0512 28.9704 40.604 28.6311ZM25.6249 28.9998H22.0374V26.8892C22.7844 26.7892 23.5013 26.6055 24.1944 26.3698L20.9843 23.9492C20.5544 23.9742 20.1252 24.0036 19.6806 23.9617C16.1027 23.6211 13.355 20.9224 12.5581 17.5961L9.22494 15.0818V15.5099C9.22494 21.1124 13.323 26.1067 18.9624 26.8654V28.9998H15.3749C14.8086 28.9998 14.3499 29.4473 14.3499 29.9998V30.9998C14.3499 31.5523 14.8086 31.9998 15.3749 31.9998H25.6249C26.1912 31.9998 26.6499 31.5523 26.6499 30.9998V29.9998C26.6499 29.4473 26.1912 28.9998 25.6249 28.9998Z" fill="#828282"/>
</svg>
