<?xml version="1.0" encoding="UTF-8"?>
<svg width="20px" height="20px" viewBox="0 0 20 20" version="1.1" xmlns="http://www.w3.org/2000/svg" xmlns:xlink="http://www.w3.org/1999/xlink">
    <title>F86790BE-0ED8-4F3F-A47A-D2693B10E547</title>
    <g id="POC" stroke="none" stroke-width="1" fill="none" fill-rule="evenodd">
        <g id="Atendee-Fullscreen-Config-Video" transform="translate(-1011.000000, -732.000000)" fill="#979797" fill-rule="nonzero">
            <g id="Config-Menu-Category" transform="translate(995.000000, 714.000000)">
                <g id="Config-Icon" transform="translate(16.000000, 18.000000)">
                    <path d="M13.3613445,3.125 C14.8290751,3.125 15.9663866,4.24311119 15.9663866,5.68606322 L15.9663866,5.68606322 L15.9658824,6.32707256 L18.1217647,5.24390805 L18.1644767,5.21890662 C18.521153,5.02664799 18.9578386,5.02664799 19.3145149,5.21890662 L19.3145149,5.21890662 L19.4019245,5.27097666 C19.7587191,5.50482411 20,5.94535236 20,6.34698276 L20,6.34698276 L20,14.2780172 C20,14.7300618 19.7747662,15.1096585 19.4019245,15.3540233 L19.416,15.343 L19.45,15.3197091 L19.438214,15.3316173 C19.2642981,15.4849133 19.1237099,15.5128971 18.829574,15.5167132 L18.829574,15.5167132 L18.667918,15.5168577 C18.4837609,15.5138897 18.3326533,15.4831984 18.1922735,15.3929912 L18.1922735,15.3929912 L18.1470588,15.3601904 L15.9658824,14.2880136 L15.9663866,14.9389368 C15.9663866,16.3406616 14.8931359,17.4358428 13.486322,17.4972803 L13.486322,17.4972803 L13.3613445,17.5 L2.60504202,17.5 C1.13731149,17.5 0,16.3818888 0,14.9389368 L0,14.9389368 L0,5.68606322 C0,4.24311119 1.13731149,3.125 2.60504202,3.125 L2.60504202,3.125 Z M13.3613445,4.2816092 L2.60504202,4.2816092 C1.78705826,4.2816092 1.17647059,4.88188881 1.17647059,5.68606322 L1.17647059,5.68606322 L1.17647059,14.9389368 C1.17647059,15.7431112 1.78705826,16.3433908 2.60504202,16.3433908 L2.60504202,16.3433908 L13.3613445,16.3433908 C14.1793283,16.3433908 14.789916,15.7431112 14.789916,14.9389368 L14.789916,14.9389368 L14.789,13.534 L14.7647059,13.5344828 L14.7647059,6.59482759 L14.789,6.594 L14.789916,5.68606322 C14.789916,4.92919319 14.2490494,4.35293584 13.5034596,4.28775979 L13.3613445,4.2816092 Z M18.7394958,6.23132184 L18.7296556,6.23333368 L18.6710737,6.26709764 L15.941,7.638 L15.941,12.983 L18.7441176,14.3603017 L18.7882353,14.3603017 L18.8005174,14.3491631 C18.8119775,14.3353587 18.818385,14.3212374 18.8213834,14.3047586 L18.8213834,14.3047586 L18.8235294,14.2780172 L18.8235294,6.34698276 C18.8235294,6.33317802 18.7797683,6.25327934 18.749336,6.23333368 C18.7452432,6.23065122 18.7337484,6.23065122 18.7296556,6.23333368 Z" id="Combined-Shape"></path>
                </g>
            </g>
        </g>
    </g>
</svg>