<?xml version="1.0" encoding="UTF-8"?>
<svg width="26px" height="25px" viewBox="0 0 26 25" version="1.1" xmlns="http://www.w3.org/2000/svg" xmlns:xlink="http://www.w3.org/1999/xlink">
    <title>BDB80D08-F4A2-4A04-B3D0-4477D8E427A2</title>
    <g id="POC" stroke="none" stroke-width="1" fill="none" fill-rule="evenodd">
        <g id="Coach-Controls-toggle" transform="translate(-858.000000, -973.000000)" fill="#9D9D9D">
            <g id="Navigation" transform="translate(0.000000, 833.000000)">
                <g id="Button-Group" transform="translate(676.000000, 131.000000)">
                    <g id="Button-2" transform="translate(150.000000, 0.000000)">
                        <g id="Iconography/Play" transform="translate(32.187500, 9.000000)">
                            <path d="M1.42505787,0.186011905 L1.51785714,0.267857143 L4.82142857,3.57142857 L16.9642857,3.57142857 C18.4237637,3.57142857 19.5530431,4.64457418 19.6377518,6.07649331 L19.6428571,6.25 L19.6428571,8.39285714 L23.6607143,6.33928571 C23.9285714,6.16071429 24.2857143,6.16071429 24.5535714,6.33928571 C24.7879464,6.49553571 24.9539621,6.78850446 24.9918039,7.0387486 L25,7.14285714 L25,17.8571429 C25,18.2142857 24.8214286,18.4821429 24.5535714,18.6607143 C24.4642857,18.75 24.2857143,18.75 24.1071429,18.75 C23.9642857,18.75 23.8785714,18.75 23.8042857,18.7042857 L23.75,18.6607143 L19.6428571,16.6071429 L19.6428571,18.3928571 L24.7321429,23.4821429 C25.0892857,23.8392857 25.0892857,24.375 24.7321429,24.7321429 C24.5535714,24.9107143 24.2857143,25 24.1071429,25 C23.9583333,25 23.7475198,24.937996 23.5780423,24.8139881 L23.4821429,24.7321429 L0.267857143,1.51785714 C-0.0892857143,1.16071429 -0.0892857143,0.625 0.267857143,0.267857143 C0.595238095,-0.0595238095 1.07266865,-0.0868055556 1.42505787,0.186011905 Z M0.625,4.55357143 L17.4107143,21.3392857 C17.3392857,21.4107143 17.2107143,21.425 17.0707143,21.4278571 L16.9642857,21.4285714 L2.67857143,21.4285714 C1.21909341,21.4285714 0.0898140321,20.3554258 0.00510537909,18.9235067 L0,18.75 L0,6.25 C0,5.625 0.267857143,5 0.625,4.55357143 Z M14.9311679,5.78042328 L14.8214286,5.89285714 L14.8214286,5.89285714 C14.4642857,6.16071429 14.2857143,6.69642857 14.2857143,7.14285714 C14.2857143,7.58928571 14.4642857,8.03571429 14.8214286,8.39285714 C15.1785714,8.75 15.625,8.92857143 16.0714286,8.92857143 C16.5178571,8.92857143 16.9642857,8.75 17.3214286,8.39285714 C17.6785714,8.03571429 17.8571429,7.58928571 17.8571429,7.14285714 C17.8571429,6.69642857 17.6785714,6.16071429 17.3214286,5.89285714 C16.7311508,5.21825397 15.5833884,5.18077601 14.9311679,5.78042328 Z" id="Combined-Shape"></path>
                        </g>
                    </g>
                </g>
            </g>
        </g>
    </g>
</svg>