<?xml version="1.0" encoding="UTF-8"?>
<svg width="26px" height="25px" viewBox="0 0 26 25" version="1.1" xmlns="http://www.w3.org/2000/svg" xmlns:xlink="http://www.w3.org/1999/xlink">
    <title>A6E75761-366A-4749-AB8A-FF155F0532AC</title>
    <g id="POC" stroke="none" stroke-width="1" fill="none" fill-rule="evenodd">
        <g id="Coach-Fullscreen" transform="translate(-1128.000000, -973.000000)" fill="#FFFFFF">
            <g id="Navigation" transform="translate(0.000000, 833.000000)">
                <g id="Button-Group" transform="translate(676.000000, 131.000000)">
                    <g id="Button-3" transform="translate(420.000000, 0.000000)">
                        <g id="Iconography/Play" transform="translate(32.187500, 9.000000)">
                            <path d="M14.0286234,11.005756 L14.0286234,14.8117437 L16.2851161,14.8117437 L12.5011283,21.3627227 L8.71864044,14.8117437 L10.9946331,14.8117437 L10.9946331,11.005756 L14.0286234,11.005756 Z M0.752416026,7.90426592 C7.12039557,1.53253639 17.4518624,1.53153639 23.8250919,7.90351592 C25.2938229,9.37153978 24.9863784,12.8608745 24.946446,13.2546525 L24.9425883,13.2909986 C24.8960885,13.6894973 24.5345896,13.9604965 24.1390909,13.8909967 L24.1390909,13.8909967 L17.5196122,12.7500004 C17.1251134,12.6815006 16.8006145,12.2965018 16.7998645,11.8952531 L16.7998645,11.8952531 L16.8006145,8.88551277 C16.8006145,8.48426406 16.4721155,8.15576511 16.0698668,8.15576511 L16.0698668,8.15576511 L8.8858899,8.15576511 C8.48464119,8.15576511 8.15614224,8.48426406 8.15614224,8.88551277 L8.15614224,8.88551277 L8.15489225,12.0815025 C8.15489225,12.4827512 7.83539327,12.8864999 7.44414453,12.9759996 L7.44414453,12.9759996 L1.46341374,14.3672452 C1.072165,14.4584949 0.655166339,14.2179956 0.538416714,13.8344969 C0.538416714,13.8344969 -0.805078971,9.46151092 0.752416026,7.90426592 Z" id="Combined-Shape"></path>
                        </g>
                    </g>
                </g>
            </g>
        </g>
    </g>
</svg>