<?xml version="1.0" encoding="UTF-8"?>
<svg width="20px" height="20px" viewBox="0 0 20 20" version="1.1" xmlns="http://www.w3.org/2000/svg" xmlns:xlink="http://www.w3.org/1999/xlink">
    <title>6A9B12CC-0CBC-4FD6-9B5C-7B4DE9B24401</title>
    <g id="POC" stroke="none" stroke-width="1" fill="none" fill-rule="evenodd">
        <g id="Atendee-Fullscreen-Config-Audio" transform="translate(-909.000000, -676.000000)" fill="#9D9D9D">
            <g id="Config-Menu-Category" transform="translate(893.000000, 658.000000)">
                <g id="Config-Icon" transform="translate(16.000000, 18.000000)">
                    <path d="M15.61216,6.9288357 C15.9218867,6.9288357 16.1994834,7.18810448 16.2438786,7.49619286 L16.25,7.58987352 L16.25,10.2042366 C16.25,13.3992504 13.9647834,16.0693646 10.9416158,16.5345586 L10.7135187,16.5652877 L10.6380281,16.57359 L10.6380281,18.6930668 L12.5510019,18.6928106 C12.8553176,18.6928106 13.1098471,18.9112493 13.1734505,19.2034843 L13.1873867,19.3034307 L13.1887432,19.3464053 C13.1887432,19.6745653 12.9527729,19.9462317 12.6452432,19.9929135 L12.5510019,20 L7.44907177,20 C7.09685452,20 6.81133051,19.7073813 6.81133051,19.3464053 C6.81133051,19.0182454 7.04730077,18.746579 7.35483049,18.6998971 L7.44907177,18.6928106 L9.36254557,18.6930668 L9.36254557,16.57359 L9.2865548,16.5652877 C6.26056223,16.2152196 3.9188312,13.6666017 3.75884502,10.5455005 L3.75086688,10.304314 L3.7500661,7.59189265 C3.74481307,7.23890003 4.05342297,6.92261956 4.39790104,6.92800078 C4.70478188,6.93303455 4.97685851,7.19170246 5.01983073,7.4970694 L5.02565496,7.58987352 L5.02565496,10.2042366 C5.02565496,13.0378199 7.23518416,15.3022751 10.0000368,15.3022751 C12.6921286,15.3022751 14.857743,13.1554327 14.9698584,10.4267272 L14.9744187,10.2042366 L14.9744315,7.59172164 C14.9696144,7.24257326 15.2714445,6.9288357 15.61216,6.9288357 Z M10.0000368,0 C12.0843431,0 13.7829927,1.7138363 13.8256625,3.83960731 L13.8264844,3.92156811 L13.8264844,9.67320135 C13.8264844,11.8367069 12.111065,13.5947695 10.0000368,13.5947695 C7.91573053,13.5947695 6.21708097,11.8809332 6.17441115,9.75516215 L6.17358924,9.67320135 L6.17358924,3.92156811 C6.17358924,1.75806252 7.88900866,0 10.0000368,0 Z M10.0000368,1.30718937 C8.61727886,1.30718937 7.48793919,2.44058379 7.45005372,3.84850422 L7.44907177,3.92156811 L7.44907177,9.67320135 C7.44907177,11.1147662 8.59343821,12.2875801 10.0000368,12.2875801 C11.3827948,12.2875801 12.5121345,11.1541857 12.55002,9.74626524 L12.5510019,9.67320135 L12.5510019,3.92156811 C12.5510019,2.48000327 11.4066355,1.30718937 10.0000368,1.30718937 Z" id="Combined-Shape"></path>
                </g>
            </g>
        </g>
    </g>
</svg>