<?xml version="1.0" encoding="UTF-8"?>
<svg width="26px" height="25px" viewBox="0 0 26 25" version="1.1" xmlns="http://www.w3.org/2000/svg" xmlns:xlink="http://www.w3.org/1999/xlink">
    <title>6C23BFA0-44A3-407E-A254-B8AC422619D4</title>
    <g id="POC" stroke="none" stroke-width="1" fill="none" fill-rule="evenodd">
        <g id="Coach-Controls-toggle" transform="translate(-768.000000, -973.000000)" fill="#9D9D9D">
            <g id="Navigation" transform="translate(0.000000, 833.000000)">
                <g id="Button-Group" transform="translate(676.000000, 131.000000)">
                    <g id="Button-1" transform="translate(60.000000, 0.000000)">
                        <g id="Iconography/Play" transform="translate(32.187500, 9.000000)">
                            <path d="M12.1268173,0 C9.66904846,0 7.66253013,2.00652509 7.66253013,4.46429897 L7.66253013,12.5000169 C7.66253013,12.7132903 7.68206894,12.922143 7.71137042,13.1277899 L16.580651,4.2585171 C16.4716521,1.89617633 14.5151322,0 12.1268173,0 L12.1268173,0 Z M22.2098309,1.15444371 C14.9744169,8.38984629 7.14258332,16.2216721 0.78125,22.5830248 L2.04380431,23.8455563 L7.12193157,18.767455 C8.2764853,19.6923261 9.68553059,20.3118652 11.2339599,20.483395 L11.2339599,25 L13.0196751,25 L13.0196751,20.483395 C17.0357215,20.0384905 20.1625355,16.6342145 20.1625355,12.5000169 L20.1625355,9.82144424 L18.3768203,9.82144424 L18.3768203,12.5000169 C18.3768203,15.9779599 15.6047654,18.7500084 12.1268173,18.7500084 C10.7135936,18.7500084 9.42622687,18.2811781 8.3862354,17.503135 L9.67320021,16.2161715 C10.3783969,16.6850694 11.2199955,16.9642821 12.1268173,16.9642821 C14.5845864,16.9642821 16.5911051,14.957757 16.5911051,12.5000169 L16.5911051,9.29828315 L23.472385,2.41697522 L22.2098309,1.15444371 Z M4.09109972,9.82144424 L4.09109972,12.5000169 C4.09109972,13.7398037 4.37726071,14.911424 4.87932359,15.9598385 L6.23953837,14.5996129 C6.00866313,13.9436958 5.87681492,13.2396573 5.87681492,12.5000169 L5.87681492,9.82144424 L4.09109972,9.82144424 Z" id="Shape" transform="translate(12.126818, 12.500000) scale(-1, 1) translate(-12.126818, -12.500000) "></path>
                        </g>
                    </g>
                </g>
            </g>
        </g>
    </g>
</svg>