<?xml version="1.0" encoding="UTF-8"?>
<svg width="26px" height="25px" viewBox="0 0 26 25" version="1.1" xmlns="http://www.w3.org/2000/svg" xmlns:xlink="http://www.w3.org/1999/xlink">
    <title>0B15C661-FAA3-4964-91E9-ED454FD897E5</title>
    <g id="POC" stroke="none" stroke-width="1" fill="none" fill-rule="evenodd">
        <g id="Coach-Fullscreen" transform="translate(-858.000000, -973.000000)" fill="#9D9D9D">
            <g id="Navigation" transform="translate(0.000000, 833.000000)">
                <g id="Button-Group" transform="translate(676.000000, 131.000000)">
                    <g id="Button-2" transform="translate(150.000000, 0.000000)">
                        <g id="Iconography/Play" transform="translate(32.187500, 9.000000)">
                            <path d="M24.5535714,6.67410714 C24.2857143,6.49553571 23.9285714,6.49553571 23.6607143,6.67410714 L19.6428571,8.72767857 L19.6428571,6.58482143 C19.6428571,5.06696429 18.4821429,3.90625 16.9642857,3.90625 L2.67857143,3.90625 C1.16071429,3.90625 0,5.06696429 0,6.58482143 L0,19.0848214 C0,20.6026786 1.16071429,21.7633929 2.67857143,21.7633929 L16.9642857,21.7633929 C18.4821429,21.7633929 19.6428571,20.6026786 19.6428571,19.0848214 L19.6428571,16.9419643 L23.75,18.9955357 C23.8392857,19.0848214 23.9285714,19.0848214 24.1071429,19.0848214 C24.2857143,19.0848214 24.4642857,19.0848214 24.5535714,18.9955357 C24.8214286,18.8169643 25,18.5491071 25,18.1919643 L25,7.47767857 C25,7.20982143 24.8214286,6.85267857 24.5535714,6.67410714 Z M17.3214286,8.72767857 C16.9642857,9.08482143 16.5178571,9.26339286 16.0714286,9.26339286 C15.625,9.26339286 15.1785714,9.08482143 14.8214286,8.72767857 C14.4642857,8.37053571 14.2857143,7.92410714 14.2857143,7.47767857 C14.2857143,7.03125 14.4642857,6.58482143 14.8214286,6.22767857 C15.4464286,5.60267857 16.6964286,5.60267857 17.3214286,6.22767857 C17.6785714,6.49553571 17.8571429,7.03125 17.8571429,7.47767857 C17.8571429,7.92410714 17.6785714,8.37053571 17.3214286,8.72767857 Z" id="Shape"></path>
                        </g>
                    </g>
                </g>
            </g>
        </g>
    </g>
</svg>