<?xml version="1.0" encoding="UTF-8"?>
<svg width="116px" height="60px" viewBox="0 0 116 60" version="1.1" xmlns="http://www.w3.org/2000/svg" xmlns:xlink="http://www.w3.org/1999/xlink">
    <title>8DA40E02-2577-4F64-8641-2C20DB61CD4F</title>
    <g id="POC" stroke="none" stroke-width="1" fill="none" fill-rule="evenodd">
        <g id="Coach-Grid" transform="translate(-1748.000000, -964.000000)" fill="#3E3E3E">
            <g id="Navigation" transform="translate(0.000000, 833.000000)">
                <g id="Right-Button" transform="translate(1748.000000, 131.000000)">
                    <path d="M111.172414,0 C113.838616,-4.89773406e-16 116,2.16138397 116,4.82758621 L116,55.1724138 C116,57.838616 113.838616,60 111.172414,60 L4.82758621,60 C2.16138397,60 -5.62281556e-16,57.838616 0,55.1724138 L0,4.82758621 C-3.26515604e-16,2.16138397 2.16138397,4.89773406e-16 4.82758621,0 L111.172414,0 Z M53.1519027,33.1963087 C53.0049949,33.0956376 52.8091177,33.0956376 52.6132406,33.1459732 C46.736926,34.9077181 42.0848437,39.488255 40.0281336,45.3775168 C39.4405021,47.0385906 40.615765,48.75 42.3296901,48.75 L42.3296901,48.75 L73.7190036,48.75 L73.8785569,48.7445645 C75.4579483,48.6364962 76.5402664,46.9362957 75.9715908,45.3775168 C73.9148807,39.488255 69.2627984,34.9077181 63.3864839,33.1459732 C63.1906067,33.0956376 62.9947296,33.0956376 62.8478217,33.1963087 C61.3787431,34.0016779 59.7627566,34.454698 57.9998622,34.454698 C56.2369678,34.454698 54.6209814,34.0016779 53.1519027,33.1963087 Z M57.9998622,11.25 C52.2392792,11.25 47.5694039,16.0501685 47.5694039,21.9714765 C47.5694039,27.8927845 52.2392792,32.692953 57.9998622,32.692953 C63.7604453,32.692953 68.4303205,27.8927845 68.4303205,21.9714765 C68.4303205,16.0501685 63.7604453,11.25 57.9998622,11.25 Z" id="Combined-Shape"></path>
                </g>
            </g>
        </g>
    </g>
</svg>