<?xml version="1.0" encoding="UTF-8"?>
<svg width="116px" height="60px" viewBox="0 0 116 60" version="1.1" xmlns="http://www.w3.org/2000/svg" xmlns:xlink="http://www.w3.org/1999/xlink">
    <title>1C2D55C2-0F21-417E-917B-3AAA4B8651A9</title>
    <g id="POC" stroke="none" stroke-width="1" fill="none" fill-rule="evenodd">
        <g id="Coach-Fullscreen" transform="translate(-1748.000000, -964.000000)" fill="#3E3E3E">
            <g id="Navigation" transform="translate(0.000000, 833.000000)">
                <g id="Right-Button" transform="translate(1748.000000, 131.000000)">
                    <path d="M23.7297778,42.8571429 C24.8608569,42.8571429 25.7777778,43.7740637 25.7777778,44.9051429 L25.7777778,57.952 C25.7777778,59.0830792 24.8608569,60 23.7297778,60 L2.048,60 C0.916920832,60 1.38517248e-16,59.0830792 0,57.952 L0,44.9051429 C-1.38517248e-16,43.7740637 0.916920832,42.8571429 2.048,42.8571429 L23.7297778,42.8571429 Z M53.8038519,42.8571429 C54.934931,42.8571429 55.8518519,43.7740637 55.8518519,44.9051429 L55.8518519,57.952 C55.8518519,59.0830792 54.934931,60 53.8038519,60 L32.1220741,60 C30.9909949,60 30.0740741,59.0830792 30.0740741,57.952 L30.0740741,44.9051429 C30.0740741,43.7740637 30.9909949,42.8571429 32.1220741,42.8571429 L53.8038519,42.8571429 Z M83.8779259,42.8571429 C85.0090051,42.8571429 85.9259259,43.7740637 85.9259259,44.9051429 L85.9259259,57.952 C85.9259259,59.0830792 85.0090051,60 83.8779259,60 L62.1961481,60 C61.065069,60 60.1481481,59.0830792 60.1481481,57.952 L60.1481481,44.9051429 C60.1481481,43.7740637 61.065069,42.8571429 62.1961481,42.8571429 L83.8779259,42.8571429 Z M113.952,42.8571429 C115.083079,42.8571429 116,43.7740637 116,44.9051429 L116,57.952 C116,59.0830792 115.083079,60 113.952,60 L92.2702222,60 C91.1391431,60 90.2222222,59.0830792 90.2222222,57.952 L90.2222222,44.9051429 C90.2222222,43.7740637 91.1391431,42.8571429 92.2702222,42.8571429 L113.952,42.8571429 Z M23.7297778,21.4285714 C24.8608569,21.4285714 25.7777778,22.3454923 25.7777778,23.4765714 L25.7777778,36.5234286 C25.7777778,37.6545077 24.8608569,38.5714286 23.7297778,38.5714286 L2.048,38.5714286 C0.916920832,38.5714286 1.38517248e-16,37.6545077 0,36.5234286 L0,23.4765714 C-1.38517248e-16,22.3454923 0.916920832,21.4285714 2.048,21.4285714 L23.7297778,21.4285714 Z M53.8038519,21.4285714 C54.934931,21.4285714 55.8518519,22.3454923 55.8518519,23.4765714 L55.8518519,36.5234286 C55.8518519,37.6545077 54.934931,38.5714286 53.8038519,38.5714286 L32.1220741,38.5714286 C30.9909949,38.5714286 30.0740741,37.6545077 30.0740741,36.5234286 L30.0740741,23.4765714 C30.0740741,22.3454923 30.9909949,21.4285714 32.1220741,21.4285714 L53.8038519,21.4285714 Z M83.8779259,21.4285714 C85.0090051,21.4285714 85.9259259,22.3454923 85.9259259,23.4765714 L85.9259259,36.5234286 C85.9259259,37.6545077 85.0090051,38.5714286 83.8779259,38.5714286 L62.1961481,38.5714286 C61.065069,38.5714286 60.1481481,37.6545077 60.1481481,36.5234286 L60.1481481,23.4765714 C60.1481481,22.3454923 61.065069,21.4285714 62.1961481,21.4285714 L83.8779259,21.4285714 Z M113.952,21.4285714 C115.083079,21.4285714 116,22.3454923 116,23.4765714 L116,36.5234286 C116,37.6545077 115.083079,38.5714286 113.952,38.5714286 L92.2702222,38.5714286 C91.1391431,38.5714286 90.2222222,37.6545077 90.2222222,36.5234286 L90.2222222,23.4765714 C90.2222222,22.3454923 91.1391431,21.4285714 92.2702222,21.4285714 L113.952,21.4285714 Z M23.7297778,0 C24.8608569,-1.77288688e-15 25.7777778,0.916920832 25.7777778,2.048 L25.7777778,15.0948571 C25.7777778,16.2259363 24.8608569,17.1428571 23.7297778,17.1428571 L2.048,17.1428571 C0.916920832,17.1428571 1.38517248e-16,16.2259363 0,15.0948571 L0,2.048 C-1.38517248e-16,0.916920832 0.916920832,6.51865082e-16 2.048,0 L23.7297778,0 Z M53.8038519,0 C54.934931,-1.77288688e-15 55.8518519,0.916920832 55.8518519,2.048 L55.8518519,15.0948571 C55.8518519,16.2259363 54.934931,17.1428571 53.8038519,17.1428571 L32.1220741,17.1428571 C30.9909949,17.1428571 30.0740741,16.2259363 30.0740741,15.0948571 L30.0740741,2.048 C30.0740741,0.916920832 30.9909949,6.51865082e-16 32.1220741,0 L53.8038519,0 Z M83.8779259,0 C85.0090051,-1.77288688e-15 85.9259259,0.916920832 85.9259259,2.048 L85.9259259,15.0948571 C85.9259259,16.2259363 85.0090051,17.1428571 83.8779259,17.1428571 L62.1961481,17.1428571 C61.065069,17.1428571 60.1481481,16.2259363 60.1481481,15.0948571 L60.1481481,2.048 C60.1481481,0.916920832 61.065069,6.51865082e-16 62.1961481,0 L83.8779259,0 Z M113.952,0 C115.083079,2.36313338e-16 116,0.916920832 116,2.048 L116,15.0948571 C116,16.2259363 115.083079,17.1428571 113.952,17.1428571 L92.2702222,17.1428571 C91.1391431,17.1428571 90.2222222,16.2259363 90.2222222,15.0948571 L90.2222222,2.048 C90.2222222,0.916920832 91.1391431,6.51865082e-16 92.2702222,0 L113.952,0 Z" id="Combined-Shape"></path>
                </g>
            </g>
        </g>
    </g>
</svg>