<?xml version="1.0" encoding="UTF-8"?>
<svg width="20px" height="16px" viewBox="0 0 20 16" version="1.1" xmlns="http://www.w3.org/2000/svg" xmlns:xlink="http://www.w3.org/1999/xlink">
    <title>EE015797-99BA-4B0F-AFEF-3B0D5A5C4D4F</title>
    <defs>
        <path d="M12.4137931,0.5 C16.5961343,0.5 20,3.86518542 20,8.00065649 C20,12.1361276 16.5961343,15.5 12.4137931,15.5 L12.4137931,15.5 L12.4137931,14.2152423 C15.8805212,14.2152423 18.700475,11.4273335 18.700475,8.00065649 C18.700475,4.57266653 15.8805212,1.78475768 12.4137931,1.78475768 L12.4137931,1.78475768 Z M10.3438626,1.12270301 L10.3448276,1.15974398 L10.3448276,14.8401591 C10.3448276,15.4016827 9.68688209,15.7003804 9.26112598,15.3484327 L9.23309599,15.3240013 L4.65848559,11.1254499 C4.54721237,11.0233936 4.40464582,10.9625722 4.25443789,10.9523572 L4.20916991,10.9508202 L0.662415914,10.9508202 C0.30960231,10.9508202 0.0212695325,10.6767297 0.00112435141,10.3310424 L0,10.2923484 L0,5.70755469 C0,5.35705277 0.275732292,5.07024078 0.623490105,5.05020128 L0.662415914,5.04908282 L4.20939006,5.04908282 C4.36068962,5.04908282 4.50707687,4.99753924 4.62440366,4.90382365 L4.65870574,4.87445319 L9.23309599,0.675901743 C9.648093,0.295059013 10.3150602,0.573061082 10.3438626,1.12270301 Z M9.02395837,2.6548187 L5.55440747,5.83945318 C5.20552224,6.15943967 4.75330565,6.34397286 4.28046111,6.36082185 L4.20939006,6.36208754 L1.32086922,6.36208754 L1.32086922,9.6378155 L4.20916991,9.6378155 C4.68405795,9.6378155 5.14208048,9.80709688 5.50140459,10.1137594 L5.55455273,10.1607851 L9.02395837,13.3448655 L9.02395837,2.6548187 Z M12.4137931,4.59090909 C14.6957542,4.59090909 16.5517241,6.27290376 16.5517241,8.34112165 C16.5517241,10.4093395 14.6955196,12.0911217 12.4137931,12.0909091 L12.4137931,12.0909091 L12.4137931,10.8429638 C13.9361952,10.8429638 15.1742904,9.72042955 15.1742904,8.34090909 C15.1742904,6.96138863 13.9364297,5.83885434 12.4137931,5.83885434 L12.4137931,5.83885434 Z" id="path-1"></path>
    </defs>
    <g id="POC" stroke="none" stroke-width="1" fill="none" fill-rule="evenodd">
        <g id="Atendee-Fullscreen-Config-Audio" transform="translate(-909.000000, -830.000000)">
            <g id="Config-Menu-Category" transform="translate(893.000000, 810.000000)">
                <g id="Config-Icon" transform="translate(16.000000, 20.000000)">
                    <mask id="mask-2" fill="white">
                        <use xlink:href="#path-1"></use>
                    </mask>
                    <use id="Combined-Shape" fill="#9D9D9D" xlink:href="#path-1"></use>
                </g>
            </g>
        </g>
    </g>
</svg>