<?xml version="1.0" encoding="UTF-8"?>
<svg width="26px" height="25px" viewBox="0 0 26 25" version="1.1" xmlns="http://www.w3.org/2000/svg" xmlns:xlink="http://www.w3.org/1999/xlink">
    <title>9CC9DFD7-0DC8-41E1-8383-75C5934D3D04</title>
    <g id="POC" stroke="none" stroke-width="1" fill="none" fill-rule="evenodd">
        <g id="Coach-Fullscreen" transform="translate(-768.000000, -973.000000)" fill="#9D9D9D">
            <g id="Navigation" transform="translate(0.000000, 833.000000)">
                <g id="Button-Group" transform="translate(676.000000, 131.000000)">
                    <g id="Button-1" transform="translate(60.000000, 0.000000)">
                        <g id="Iconography/Play" transform="translate(32.187500, 9.000000)">
                            <path d="M12.7232071,0 C10.2654415,0 8.25892558,2.00652238 8.25892558,4.46429295 L8.25892558,12.5 C8.25892558,14.9577706 10.2654415,16.9642929 12.7232071,16.9642929 C15.1809729,16.9642929 17.1874889,14.9577706 17.1874889,12.5 L17.1874889,4.46429295 C17.1874889,2.00652238 15.1809729,0 12.7232071,0 L12.7232071,0 Z M4.6875,9.82143098 L4.6875,12.5 C4.6875,16.6342258 7.81430978,20.0384634 11.8303508,20.4834011 L11.8303508,25 L13.6160636,25 L13.6160636,20.4834011 C17.6321047,20.0384634 20.7589144,16.6342258 20.7589144,12.5 L20.7589144,9.82143098 L18.9732017,9.82143098 L18.9732017,12.5 C18.9732017,15.9779384 16.2011505,18.7499831 12.7232071,18.7499831 C9.24526395,18.7499831 6.47321279,15.9779384 6.47321279,12.5 L6.47321279,9.82143098 L4.6875,9.82143098 Z" id="Shape"></path>
                        </g>
                    </g>
                </g>
            </g>
        </g>
    </g>
</svg>